<?xml version="1.0" encoding="UTF-8"?>
<svg width="208px" height="27px" viewBox="0 0 208 27" version="1.1" xmlns="http://www.w3.org/2000/svg" xmlns:xlink="http://www.w3.org/1999/xlink">
    <!-- Generator: Sketch 48.1 (47250) - http://www.bohemiancoding.com/sketch -->
    <title>gen_logoHeader</title>
    <desc>Created with Sketch.</desc>
    <defs>
        <polygon id="path-1" points="1.56805943e-15 27.0742727 1.56805943e-15 0 30.8987008 3.05357209e-15 30.8987008 27.0742727"></polygon>
    </defs>
    <g id="BRAND-HEADER" stroke="none" stroke-width="1" fill="none" fill-rule="evenodd">
        <g id="gen_logoHeader">
            <g id="Group-3">
                <mask id="mask-2" fill="white">
                    <use xlink:href="#path-1"></use>
                </mask>
                <g id="Clip-2"></g>
                <path d="M28.2181223,5.02240496 C28.2181223,10.5079752 22.2460727,21.0687025 19.0528,25.1812149 C17.7334612,23.0051653 15.1403372,20.8336281 12.3993785,18.5387521 C8.01655207,14.8686694 3.48481653,11.0739587 3.16357686,6.61871901 C3.04883306,5.02885124 3.40122975,3.78171074 4.21023802,2.91232231 C4.98013884,2.08504959 6.00251901,1.79023967 6.7028,1.79023967 C8.89904793,1.79023967 11.256238,6.11075207 13.1505851,9.58228926 C14.7391636,12.4942893 15.7555273,14.2790496 16.591395,14.2790496 C16.9609818,14.2790496 17.4072793,13.8832479 17.4072793,13.3916116 C17.4072793,12.1655289 22.0193785,2.3538595 26.4791306,2.3538595 C26.6570479,2.3538595 28.2181223,2.42885124 28.2181223,5.02240496 M25.6363868,0.573826446 C22.5548496,0.573826446 18.7468165,3.57671901 16.4925521,7.75326446 C14.4533785,3.38333058 10.2553455,-0.000107438017 6.82184132,-0.000107438017 C2.39088264,-0.000107438017 -4.29752066e-05,3.50280165 -4.29752066e-05,6.79857025 C-4.29752066e-05,14.9971653 10.6664033,21.6508017 16.3967174,25.2252645 C17.5974446,25.9743223 18.5456926,26.5656612 19.1441223,27.0130331 L19.2259901,27.0742727 L19.3132298,27.0203388 C26.7728661,22.3865372 30.8987008,11.7396446 30.8987008,6.15179339 C30.8987008,2.65919835 28.9312959,0.573826446 25.6363868,0.573826446" id="Fill-1" fill="#F76C6F" mask="url(#mask-2)"></path>
            </g>
            <path d="M56.1549504,21.6307967 C56.1549504,23.3005983 57.079562,23.4460694 58.3301405,23.4095405 C59.6870826,23.3697884 60.3974628,22.9750612 61.2129174,22.6596231 C61.6895124,22.6877719 62.0848843,23.3854744 62.0848843,23.668681 C62.0848843,24.6025322 58.568438,25.0838545 57.0189669,25.0838545 C53.0261405,25.0838545 52.6391488,23.2157223 52.6391488,20.1588959 L52.6391488,15.6020198 C52.6391488,13.9036397 52.4004215,13.2525653 51.4768843,13.2525653 C50.732124,13.2525653 49.8678926,13.9036397 49.1525702,14.7809785 L49.1525702,24.3887306 C49.1525702,24.7565983 48.8250992,25.039805 48.4374628,25.039805 L46.3516612,25.039805 C45.9644545,25.039805 45.6367686,24.7565983 45.6367686,24.3887306 L45.6367686,15.2623008 C45.6367686,13.7906149 45.1898264,13.2525653 44.5340248,13.2525653 C43.6403554,13.2525653 42.8652975,13.9320033 42.1800579,14.7809785 L42.1800579,24.3887306 C42.1800579,24.7565983 41.852157,25.039805 41.4651653,25.039805 L39.349281,25.039805 C38.9620744,25.039805 38.6341736,24.7565983 38.6341736,24.3887306 L38.6820909,12.2213752 C38.6820909,11.8532926 39.0099917,11.5703008 39.3971983,11.5703008 L41.5128678,11.5703008 C41.9000744,11.5703008 42.2279752,11.8532926 42.2279752,12.2213752 L42.1800579,13.2525653 C43.0440744,12.318714 44.0870826,11.5829785 45.6962893,11.5829785 C47.1262893,11.5829785 48.5268512,12.0357223 48.9439256,13.5359868 C49.8975455,12.4035901 51.0002893,11.5829785 52.6685868,11.5829785 C55.9761736,11.5829785 56.1549504,13.5922843 56.1549504,16.5644496 L56.1549504,21.6307967 Z" id="Fill-4" fill="#3A3A3A"></path>
            <path d="M92.7103273,14.0167719 C92.6806744,14.1867388 92.5018975,14.3001934 92.3231207,14.3001934 C92.2337322,14.3001934 92.1441289,14.2718298 92.0848231,14.2151025 C91.5184099,13.6207554 90.8331702,13.224524 90.1180628,13.224524 C89.3733025,13.224524 88.5984595,13.6772678 87.8238314,14.781086 L87.8238314,24.3886231 C87.8238314,24.7567058 87.5255835,25.0396975 87.1383769,25.0396975 L84.9928397,25.0396975 C84.6355008,25.0396975 84.3076,24.7567058 84.3076,24.3886231 L84.3076,12.2496314 C84.3076,11.8815488 84.6355008,11.598557 84.9928397,11.598557 L87.1383769,11.598557 C87.763881,11.598557 87.8238314,12.0798793 87.8238314,12.6174992 L87.8238314,13.224524 C88.6878479,12.1204909 89.9990215,11.5261438 91.4290215,11.5261438 C91.9954347,11.5261438 93.4254347,11.6961107 93.4254347,12.1204909 C93.4254347,12.1488545 93.4254347,12.1772182 93.3955669,12.2337306 L92.7103273,14.0167719 Z" id="Fill-6" fill="#3A3A3A"></path>
            <path d="M103.406061,22.7302744 C103.882656,22.7584231 104.061433,23.3854314 104.061433,23.668638 C104.061433,24.6024893 100.605152,25.0838116 99.055681,25.0838116 C95.4204083,25.0838116 94.7946893,23.668638 94.7946893,19.4231174 C94.7946893,17.2719934 94.8840777,14.4289686 95.1821107,12.2213322 C95.2416314,11.824886 95.450276,11.5702579 95.8970033,11.5702579 L97.8934165,11.5702579 C98.3107058,11.5702579 98.6087388,11.824886 98.6087388,12.164605 C98.280838,15.4762744 98.1319289,18.262357 98.1319289,21.6591174 C98.1319289,23.328919 99.1450694,23.4094975 100.36664,23.4094975 C101.32026,23.4094975 102.482094,23.0697785 103.406061,22.7302744" id="Fill-8" fill="#3A3A3A"></path>
            <path d="M119.584722,16.5644496 L119.584722,21.6307967 C119.584722,23.3005983 120.508689,23.3639868 121.759912,23.3639868 C122.743185,23.3639868 123.90502,23.0242678 124.828987,22.6849785 C125.305797,22.7131273 125.514441,23.3854744 125.514441,23.668681 C125.514441,24.6025322 121.997995,25.0838545 120.448739,25.0838545 C116.455698,25.0838545 116.068706,23.2157223 116.068706,20.1588959 L116.068706,15.6020198 C116.068706,13.9036397 115.830408,13.2525653 114.906656,13.2525653 C114.161681,13.2525653 113.29745,13.9036397 112.582342,14.7809785 L112.582342,24.3887306 C112.582342,24.7565983 112.254656,25.039805 111.867235,25.039805 L109.781218,25.039805 C109.394012,25.039805 109.06654,24.7565983 109.06654,24.3887306 L109.06654,15.2623008 C109.06654,13.7906149 108.619383,13.2525653 107.963797,13.2525653 C107.070127,13.2525653 106.295284,13.9320033 105.609615,14.7809785 L105.609615,24.3887306 C105.609615,24.7565983 105.282144,25.039805 104.894722,25.039805 L102.779053,25.039805 C102.391846,25.039805 102.063731,24.7565983 102.063731,24.3887306 L102.063731,12.2213752 C102.063731,11.8532926 102.391846,11.5703008 102.779053,11.5703008 L104.894722,11.5703008 C105.282144,11.5703008 105.609615,11.8532926 105.609615,12.2213752 L105.609615,13.2525653 C106.473631,12.318714 107.51664,11.5829785 109.125846,11.5829785 C110.555846,11.5829785 111.956623,12.0357223 112.373483,13.5359868 C113.327102,12.4035901 114.429846,11.5829785 116.098144,11.5829785 C119.405945,11.5829785 119.584722,13.5922843 119.584722,16.5644496" id="Fill-10" fill="#3A3A3A"></path>
            <path d="M128.789345,12.9695736 C126.316122,12.9695736 126.018304,16.7060529 126.018304,18.2909785 C126.018304,19.903838 126.286469,23.6968298 128.730255,23.6968298 C131.172965,23.6968298 131.471213,19.903838 131.471213,18.2909785 C131.471213,16.7060529 131.203048,12.9695736 128.789345,12.9695736 M128.759693,25.0838545 C124.43918,25.0838545 122.532155,22.1119041 122.532155,18.3191273 C122.532155,14.554714 124.43918,11.5829785 128.759693,11.5829785 C133.050337,11.5829785 134.957362,14.554714 134.957362,18.3191273 C134.957362,22.1119041 133.050337,25.0838545 128.759693,25.0838545" id="Fill-12" fill="#3A3A3A"></path>
            <path d="M148.424266,21.6307107 C148.424266,23.3005124 149.348018,23.3639008 150.599456,23.3639008 C151.582944,23.3639008 152.744349,23.0241818 153.668101,22.6848926 C154.14534,22.7130413 154.35377,23.3853884 154.35377,23.668595 C154.35377,24.6024463 150.837324,25.0837686 149.288283,25.0837686 C145.295026,25.0837686 144.908035,23.2156364 144.908035,20.1588099 L144.908035,15.6019339 C144.908035,13.875405 144.342051,13.2524793 143.567208,13.2524793 C142.732845,13.2524793 141.630531,13.9319174 140.944646,14.7811074 L140.944646,24.3886446 C140.944646,24.7567273 140.61739,25.039719 140.259836,25.039719 L138.114299,25.039719 C137.756531,25.039719 137.42906,24.7567273 137.42906,24.3886446 L137.42906,12.2212893 C137.42906,11.8532066 137.756531,11.5702149 138.114299,11.5702149 L140.259836,11.5702149 C140.61739,11.5702149 140.944646,11.8532066 140.944646,12.2212893 L140.944646,13.2524793 C142.077473,12.148876 143.119836,11.5828926 144.729258,11.5828926 C148.185754,11.5828926 148.424266,13.875405 148.424266,16.5643636 L148.424266,21.6307107 Z" id="Fill-14" fill="#3A3A3A"></path>
            <path d="M160.639045,22.684957 C161.11564,22.7131058 161.294417,23.3854529 161.294417,23.6686595 C161.294417,24.6025107 157.837921,25.0838331 156.28845,25.0838331 C152.653177,25.0838331 152.027458,23.6686595 152.027458,19.4231388 C152.027458,17.2720149 152.116846,14.4289901 152.414664,12.2213537 C152.4744,11.8249074 152.683045,11.5702793 153.129987,11.5702793 L155.1264,11.5702793 C155.543689,11.5702793 155.841507,11.8249074 155.841507,12.1646264 C155.513392,15.4762959 155.364912,18.2623785 155.364912,21.6591388 C155.364912,23.3289405 156.377838,23.3639653 157.599408,23.3639653 C158.553243,23.3639653 159.715293,23.0242463 160.639045,22.684957" id="Fill-16" fill="#3A3A3A"></path>
            <path d="M164.571448,12.9695736 C162.098225,12.9695736 161.799977,16.7060529 161.799977,18.2909785 C161.799977,19.903838 162.068357,23.6968298 164.511712,23.6968298 C166.955068,23.6968298 167.252886,19.903838 167.252886,18.2909785 C167.252886,16.7060529 166.984506,12.9695736 164.571448,12.9695736 M164.54115,25.0838545 C160.221068,25.0838545 158.314043,22.1119041 158.314043,18.3191273 C158.314043,14.554714 160.221068,11.5829785 164.54115,11.5829785 C168.83244,11.5829785 170.739464,14.554714 170.739464,18.3191273 C170.739464,22.1119041 168.83244,25.0838545 164.54115,25.0838545" id="Fill-18" fill="#3A3A3A"></path>
            <path d="M191.836982,25.0555124 C187.635726,25.0555124 185.818089,21.9705372 185.818089,18.206124 C185.818089,14.6679752 187.78442,11.583 191.71794,11.583 C192.850122,11.583 195.621379,11.8943554 195.621379,12.8000579 C195.621379,13.1677107 195.293478,13.4509174 194.906271,13.4509174 C193.327362,12.969595 192.909858,12.884719 192.433263,12.884719 C189.602701,12.884719 189.334536,16.3377769 189.334536,18.2344876 C189.334536,21.7722066 190.138602,23.4001074 192.373527,23.4001074 C193.118288,23.4001074 194.57837,23.0324545 195.382866,22.7773967 C195.859676,22.8057603 196.098188,23.4136446 196.098188,23.7252149 C196.098188,23.8668182 196.038453,24.0082066 195.949064,24.149595 C194.966221,24.659281 193.148585,25.0555124 191.836982,25.0555124" id="Fill-20" fill="#3A3A3A"></path>
            <path d="M200.804919,17.186838 C202.622555,13.9604744 203.934159,9.85634215 203.934159,7.84660661 C203.934159,6.88439174 203.635696,6.29004463 202.980109,6.29004463 C201.490588,6.29004463 200.894307,13.2810364 200.804919,17.186838 M200.894307,19.4232678 C201.073084,21.7439289 201.81806,23.6404248 203.665779,23.6404248 C204.708357,23.6404248 206.406952,23.0460777 207.270969,22.6212678 C207.748208,22.6212678 207.956423,22.9326231 207.956423,23.2439785 C207.956423,23.3853669 207.896688,23.5269702 207.807299,23.6120612 C205.662192,24.8007554 203.159101,25.1404744 201.81806,25.1404744 C198.182787,25.1404744 197.467679,22.1966727 197.467679,17.5832843 C197.467679,13.8188711 197.855316,4.64839174 202.592902,4.64839174 C204.440192,4.64839174 205.513068,6.03520165 205.513068,8.12959835 C205.513068,11.1864248 203.606043,15.800243 200.894307,19.4232678" id="Fill-22" fill="#3A3A3A"></path>
            <path d="M175.029443,16.6800744 C174.593674,16.370438 174.156187,16.0629504 173.696137,15.7778099 L173.135096,16.0068678 C172.717592,16.763876 171.59379,18.0230496 169.613922,18.535314 C168.286203,18.8789008 168.154699,19.6844711 168.215294,19.6874793 C172.340269,19.9002066 174.333674,17.6972975 175.029443,16.6800744" id="Fill-25" fill="#3A3A3A"></path>
            <path d="M68.0115306,21.8854678 C67.2962083,22.7062942 66.1938942,23.4422446 65.150886,23.4422446 C62.7373983,23.4422446 62.5882744,19.8759471 62.5882744,18.2908066 C62.5882744,16.7060959 62.8564397,12.9696165 65.299795,12.9696165 C67.8626215,12.9696165 68.0115306,16.026443 68.0115306,17.6115835 L68.0115306,21.8854678 Z M76.7720264,22.6596661 C75.8480595,22.9989554 74.6860099,23.422476 73.7025223,23.422476 C72.4809521,23.422476 71.5273322,23.3006413 71.5273322,21.6306248 L71.5273322,18.6642612 C71.5473157,16.6132694 71.4996132,12.774724 71.4996132,12.774724 C71.4761917,12.159319 71.6068364,11.632443 70.9087041,11.6300793 L68.5300264,11.6221289 C68.1817124,11.6208397 68.016043,11.8077818 67.9597455,12.0735835 C67.2076793,11.759005 66.3365719,11.5724926 65.3298777,11.5830215 C61.0093653,11.6277157 59.1021256,14.554757 59.1021256,18.3191702 C59.1021256,21.4041455 60.5918612,25.0838975 64.3461752,25.0838975 C65.8062579,25.0838975 67.2068198,24.2912198 68.3390017,23.0739471 C68.7562909,24.5746413 70.5141917,25.0838975 72.3915636,25.0838975 C74.2388529,25.0838975 75.9374479,24.7160298 77.308357,24.0365917 C77.3977455,23.9233521 77.4572661,23.8103273 77.4572661,23.668724 C77.4572661,23.3575835 77.2484066,22.6876 76.7720264,22.6596661 Z" id="Fill-27" fill="#3A3A3A"></path>
            <path d="M183.544529,25.0555124 C182.640116,25.0555124 181.823157,24.2967851 181.823157,23.3923719 C181.823157,22.4879587 182.640116,21.7294463 183.544529,21.7294463 C184.47838,21.7294463 185.295339,22.4879587 185.295339,23.3923719 C185.295339,24.2967851 184.47838,25.0555124 183.544529,25.0555124" id="Fill-29" fill="#3A3A3A"></path>
            <path d="M176.577431,15.4762099 C176.577431,15.4762099 176.585167,15.4790033 176.586671,15.4787884 C176.088588,14.9104413 176.119745,13.515681 176.265646,12.4715983 C176.331183,12.0031686 175.959233,11.5875983 175.486506,11.5875983 L173.943051,11.5875983 C173.452274,11.5875983 173.027035,11.934838 172.935712,12.4170198 C172.809795,13.0807719 172.784225,13.7481769 172.779927,14.0146231 C172.757795,15.4250694 173.302291,16.6745736 174.590473,17.8795983 C175.26325,18.511119 177.756456,20.4967884 177.733464,21.9635322 C177.713051,23.2607388 176.485894,23.9038628 175.509068,23.8252182 C174.640109,23.7551686 173.783828,23.3821438 173.392754,22.3838298 C173.299283,22.1457471 173.033051,22.0249868 172.791745,22.1098628 C172.465779,22.2246066 172.26358,22.5658298 172.345018,22.901681 C172.616621,24.0224744 173.599894,24.7309207 175.316539,25.0100446 C177.485498,25.3624413 180.317993,23.8097471 180.360969,21.0737306 C180.391481,19.1458628 178.319861,17.1853339 176.577431,15.4762099" id="Fill-31" fill="#3A3A3A"></path>
            <path d="M79.342481,13.2724843 C79.075605,16.2865504 78.9866463,18.4838727 78.9866463,21.5828149 C78.9866463,23.2446661 79.935324,23.3925008 81.1515223,23.3925008 C82.1002,23.3925008 83.2568777,23.0545008 84.1761174,22.716286 C84.6503488,22.7446496 84.828481,23.3293273 84.828481,23.6110298 C84.828481,24.5405835 81.3883157,25.0191124 79.8463653,25.0191124 C76.2583653,25.0191124 75.5761339,23.6110298 75.5761339,19.3854926 C75.5761339,17.3849967 75.7834893,15.3286331 75.9025306,13.2724843 L74.5973736,13.2724843 C74.2714066,13.1319554 74.1123983,12.7335752 74.1123983,12.396005 C74.1123983,12.058005 74.3008446,11.720005 74.5973736,11.5790463 L76.109886,11.5790463 L77.236481,8.51190579 C77.3555223,8.14554215 77.5923157,7.83569091 77.9483653,7.83569091 L79.134481,7.83569091 C79.4903157,7.83569091 79.8169273,8.03337686 79.8169273,8.37073223 C79.6983157,9.61035207 79.5794893,10.4806 79.4610926,11.5790463 L81.9818033,11.5790463 C82.2781174,11.720005 82.5344645,12.058005 82.5344645,12.396005 C82.5344645,12.7335752 82.337638,13.1319554 81.9818033,13.2724843 L79.342481,13.2724843 Z" id="Fill-33" fill="#3A3A3A"></path>
            <path d="M154.428418,9.47573223 C153.52379,9.47573223 152.707046,8.71721983 152.707046,7.81259174 C152.707046,6.90817851 153.52379,6.14966612 154.428418,6.14966612 C155.362055,6.14966612 156.179013,6.90817851 156.179013,7.81259174 C156.179013,8.71721983 155.362055,9.47573223 154.428418,9.47573223" id="Fill-35" fill="#3A3A3A"></path>
            <path d="M97.1992165,9.49966942 C96.2948033,9.49966942 95.4780595,8.74115702 95.4780595,7.83652893 C95.4780595,6.9321157 96.2948033,6.17360331 97.1992165,6.17360331 C98.1330678,6.17360331 98.9500264,6.9321157 98.9500264,7.83652893 C98.9500264,8.74115702 98.1330678,9.49966942 97.1992165,9.49966942" id="Fill-37" fill="#3A3A3A"></path>
        </g>
    </g>
</svg>